<svg xmlns="http://www.w3.org/2000/svg" viewBox="0 0 22.61 20.87"><defs><style>.cls-1{fill:#1d1d1b;}</style></defs><g id="Capa_2" data-name="Capa 2"><g id="Capa_1-2" data-name="Capa 1"><path class="cls-1" d="M22.61,6.63C22.61,3,19.93,0,16.61,0a5.93,5.93,0,0,0-5.3,3.54A6,6,0,0,0,6,0C2.69,0,0,3,0,6.63A7,7,0,0,0,2.31,12.1l9,8.77s9.41-9.47,9.12-9.14A6.91,6.91,0,0,0,22.61,6.63ZM19.5,10.86c-.3.27-.72.69-1.4,1.37L15,15.37,11.32,19l-8.1-7.87-.09-.08A5.69,5.69,0,0,1,1.3,6.63C1.3,3.7,3.41,1.3,6,1.3a4.66,4.66,0,0,1,4.13,2.8,1.31,1.31,0,0,0,1.18.74,1.29,1.29,0,0,0,1.17-.74,4.67,4.67,0,0,1,4.13-2.8c2.59,0,4.7,2.4,4.7,5.33a5.63,5.63,0,0,1-1.82,4.23Z"/></g></g></svg>