<svg id="Capa_1" data-name="Capa 1" xmlns="http://www.w3.org/2000/svg" viewBox="0 0 32 32"><path d="M27.31,12.2c0-3.66-2.69-6.63-6-6.63A6,6,0,0,0,16,9.1a6,6,0,0,0-5.31-3.53c-3.31,0-6,3-6,6.63A7,7,0,0,0,7,17.67l9,8.76s9.41-9.46,9.12-9.14A6.87,6.87,0,0,0,27.31,12.2Zm-3.12,4.23c-.3.27-.72.69-1.39,1.36l-3.14,3.15L16,24.6,7.92,16.73l-.09-.08A5.67,5.67,0,0,1,6,12.2c0-2.94,2.1-5.33,4.69-5.33a4.63,4.63,0,0,1,4.13,2.8,1.31,1.31,0,0,0,2.36,0,4.63,4.63,0,0,1,4.13-2.8C23.9,6.87,26,9.26,26,12.2a5.61,5.61,0,0,1-1.82,4.22Z" fill="#1d1d1b"/></svg>