<svg xmlns="http://www.w3.org/2000/svg" viewBox="0 0 223.7 146.77"><defs><style>.cls-1{fill:#f9f7f5;}</style></defs><g id="Capa_2" data-name="Capa 2"><g id="ice_cream_Imagen" data-name="ice cream Imagen"><path class="cls-1" d="M219.12,84.51c.19-.21.37-.43.55-.64s.43-.48.62-.73.38-.53.56-.8.32-.44.46-.68.31-.55.46-.83.27-.47.39-.72.24-.56.35-.84.22-.51.32-.78.17-.58.26-.87.16-.53.22-.79.13-.7.18-1,.09-.43.11-.65a15.66,15.66,0,0,0,0-3.49c0-.22-.07-.43-.11-.65s-.1-.7-.18-1-.15-.52-.22-.79-.16-.58-.26-.87-.21-.52-.32-.78-.22-.56-.35-.84-.26-.48-.39-.72-.29-.56-.46-.83-.31-.46-.46-.68-.36-.54-.56-.8-.41-.49-.62-.73-.36-.44-.55-.64A18.32,18.32,0,0,0,217.77,61L153.41,5.14c-7.9-6.85-20.72-6.85-28.62,0s-7.91,18,0,24.83L154.6,55.83H20.24C9.06,55.83,0,63.69,0,73.38S9.06,90.94,20.24,90.94H154.6L124.79,116.8c-7.91,6.85-7.91,18,0,24.83a22.49,22.49,0,0,0,28.62,0L217.77,85.8A18.32,18.32,0,0,0,219.12,84.51Z"/></g></g></svg>