<svg xmlns="http://www.w3.org/2000/svg" viewBox="0 0 224 147">
    <defs>
        <style>.cls-1{fill:#FFFFFF;}</style>
    </defs>
    <g id="ice_cream_arrow_right">
        <path class="cls-1"
              d="M4.59,84.51c-.2-.21-.37-.43-.56-.64s-.43-.48-.62-.73-.37-.53-.56-.8-.32-.44-.46-.68-.31-.55-.46-.83-.27-.47-.39-.72-.24-.56-.35-.84S1,78.76.87,78.49s-.17-.58-.25-.87-.17-.53-.23-.79-.13-.7-.18-1-.09-.43-.11-.65a15.66,15.66,0,0,1,0-3.49c0-.22.07-.43.11-.65s.1-.7.18-1,.15-.52.23-.79.15-.58.25-.87.21-.52.32-.78.22-.56.35-.84.26-.48.39-.72.29-.56.46-.83.31-.46.46-.68.36-.54.56-.8.41-.49.62-.73.36-.44.56-.64A18.17,18.17,0,0,1,5.93,61L70.29,5.14c7.9-6.85,20.72-6.85,28.62,0s7.91,18,0,24.83L69.1,55.83H203.46c11.18,0,20.24,7.86,20.24,17.55s-9.06,17.56-20.24,17.56H69.1L98.91,116.8c7.91,6.85,7.91,18,0,24.83a22.49,22.49,0,0,1-28.62,0L5.93,85.8A18.17,18.17,0,0,1,4.59,84.51Z"/>
    </g>
</svg>