<svg xmlns="http://www.w3.org/2000/svg" viewBox="0 0 235.29 235.29"><defs><style>.cls-1{fill:#f01357;}.cls-2{fill:#fff;}</style></defs><g id="Capa_2" data-name="Capa 2"><g id="ice_cream_Imagen" data-name="ice cream Imagen"><rect class="cls-1" width="235.29" height="235.29" rx="73.2"/><path class="cls-2" d="M169.22,78.1H62.36q-5.51,39.59-11,79.15c0,17,12.85,31,28.54,31h75.49a27.42,27.42,0,0,0,20.16-9.1c6.5-7.06,8.38-21.88,8.38-21.88Zm-4,92.83a22.51,22.51,0,0,1-16.56,7.48h-62C73.74,178.41,63.18,167,63.18,153q4.53-32.5,9-65H160l12.08,65S170.56,165.13,165.22,170.93Z"/><path class="cls-2" d="M88.16,98.71C90,75.23,102.53,57,117.65,57s27.62,18.22,29.48,41.7h7.51c-2-29-17.8-51.65-37-51.65s-35,22.67-37,51.65Z"/></g></g></svg>