<svg xmlns="http://www.w3.org/2000/svg" viewBox="0 0 340.42 289.45"><defs><style>.cls-1{fill:#fff;stroke:#929292;stroke-miterlimit:10;stroke-width:7.22px;}</style></defs><g id="Capa_2" data-name="Capa 2"><g id="ice_cream_Imagen" data-name="ice cream Imagen"><path class="cls-1" d="M21,162.18H305.9c.23-2.34.38-4.71.38-7.11,0-40-33.07-72.63-75-75.52-5.92-42.74-44.86-75.79-92.14-75.79-51.36,0-93,39-93,87.05,0,1.66.16,3.27.26,4.9-16.13,13.85-26.3,33.69-26.3,55.79A71,71,0,0,0,21,162.18Z"/><path class="cls-1" d="M333,7.67a14.69,14.69,0,0,0-19.73-.49l-80,71.06,29.18,10.1,70-62.2A12.52,12.52,0,0,0,333,7.67Z"/><path class="cls-1" d="M28.25,159.59V214a18.27,18.27,0,0,0,.22,3c.88,6.36,4.64,12.19,10.39,17.07v7.6a32.42,32.42,0,0,0,.21,3.83c2.21,22.63,24.11,40.38,50.79,40.38H239.41c26.68,0,48.57-17.75,50.79-40.38a32.42,32.42,0,0,0,.21-3.83V234c5.75-4.88,9.51-10.71,10.39-17.07a18.27,18.27,0,0,0,.22-3V159.59Z"/><rect class="cls-1" x="119.08" y="215.18" width="91.43" height="2.57" rx="1.28"/><rect class="cls-1" x="3.61" y="159.61" width="322.37" height="2.57" rx="1.28"/></g></g></svg>