<svg xmlns="http://www.w3.org/2000/svg" viewBox="0 0 215.37 355.07"><defs><style>.cls-1{fill:#fff;stroke:#929292;stroke-miterlimit:10;stroke-width:7.22px;}</style></defs><g id="Capa_2" data-name="Capa 2"><g id="ice_cream_Imagen" data-name="ice cream Imagen"><polygon class="cls-1" points="20.72 149.1 20.77 149.22 38.05 188.37 41.47 196.09 62.49 243.79 65.62 250.86 84.89 294.49 92.82 312.46 107.66 346.12 120.14 317.86 137.75 277.98 145.8 259.76 159.05 229.68 164.74 216.79 182.31 177.03 185.19 170.52 194.65 149.1 20.72 149.1"/><path class="cls-1" d="M204.52,127a99.29,99.29,0,0,0,2-18.73c0-57.81-43.51-104.68-97.2-104.68s-97.2,46.87-97.2,104.68a95.36,95.36,0,0,0,1.06,12.52c-15.59,11-12,37.95,10.12,37.19,10.07-.33,18.42-7.31,28.76-4.93,7.53,1.71,13.52,7.11,19.8,11.25,4.41,2.93,10.05,6.61,15.6,6,7.42-.86,12.64-6.26,18.73-9.85a44.71,44.71,0,0,1,24.54-6.14c11.89.46,24.21,10.68,35.8,8.44,8.46-1.64,15.07-8.62,23.95-8.93,8.15-.28,20.86.53,21.28-10.33C212,137.36,208.21,131.85,204.52,127Z"/><line class="cls-1" x1="180.06" y1="182.12" x2="65.62" y2="250.86"/></g></g></svg>