<svg xmlns="http://www.w3.org/2000/svg" viewBox="0 0 130.62 327.9"><defs><style>.cls-1{fill:#fff;stroke:#929292;stroke-miterlimit:10;stroke-width:5.78px;}.cls-2{fill:#929292;}</style></defs><g id="Capa_2" data-name="Capa 2"><g id="ice_cream_Imagen" data-name="ice cream Imagen"><path class="cls-1" d="M65.29,325h0a15.68,15.68,0,0,1-15.68-15.69V182.65A15.69,15.69,0,0,1,65.29,167h0A15.7,15.7,0,0,1,81,182.65V309.32A15.69,15.69,0,0,1,65.29,325Z"/><path class="cls-1" d="M127.73,63.32V246H2.89V63.32c0-33.38,28-60.43,62.44-60.43a63.35,63.35,0,0,1,44.13,17.68A59.39,59.39,0,0,1,127.73,63.32Z"/><path class="cls-2" d="M127.73,60.52c0-15.91-7-30.31-18.27-40.77A65,65,0,0,0,65.33,2.89c-34.49,0-62.44,25.8-62.44,57.63v8h0a2.89,2.89,0,0,1,0,.29v.71H3c0,.47.12,1.07.16,1.3C12,68.26,15.61,70.07,17.28,72c5.71,6.79-5.12,22.9,2.09,33.88.57.87,3.58,5.26,7.86,5.35,4.55.1,7.85-4.74,8.44-5.6,7.46-10.89-1.05-25.88,5.17-31.84,2.41-2.31,7.12-3.35,9.95-1.19,10.54,8.07-8.7,58.08,1.05,72.5,3.39,5,7.51,6,7.51,6a11.14,11.14,0,0,0,8.2-1.78c12.21-8.48-10.18-63.44,4.71-76.08,2.49-2.11,6.56-3.49,8.9-1.78,7.13,5.23-7.17,35.33,2.62,45.17a12.38,12.38,0,0,0,8.9,3.57,12.25,12.25,0,0,0,8.38-4.17c7.45-8.84-5.35-27.1.52-37.51,2.33-4.14,8.39-8.43,26.12-6.27V69.56h0Z"/></g></g></svg>