<svg xmlns="http://www.w3.org/2000/svg" viewBox="0 0 208.88 200.77">
    <defs>
        <style>.cls-1{fill:#FFFFFF;}</style>
    </defs>
    <g id="ice_cream_star">
        <path class="cls-1"
              d="M204.62,68.89a21.41,21.41,0,0,0-14.14-8.42l-46.15-6.7-20.6-41.66a21.93,21.93,0,0,0-9.51-9.77L114,2.21A21.12,21.12,0,0,0,104.51,0,21.38,21.38,0,0,0,85.16,12.14L64.52,53.87,18.43,60.56A21.73,21.73,0,0,0,6.12,66.78a21.33,21.33,0,0,0,.42,30.33l33.29,32.46-7.89,46a21.5,21.5,0,0,0,31.21,22.69l41.28-21.73,41.31,21.75a22,22,0,0,0,10.07,2.49,21.24,21.24,0,0,0,3.62-.31,21.51,21.51,0,0,0,13.85-8.8,21.17,21.17,0,0,0,3.63-16l-7.89-46,33.32-32.49a21.54,21.54,0,0,0,2.28-28.29Zm-3.89,14.79a13.27,13.27,0,0,1-3.9,7.7l-36.4,35.5L169,177a13.46,13.46,0,0,1-19.6,14.2l-45-23.7-45,23.7a13.57,13.57,0,0,1-19.6-14.3l8.6-50.1-36.3-35.4a13.34,13.34,0,0,1-.3-19,13.57,13.57,0,0,1,7.7-3.9l50.3-7.3,22.5-45.5a13.49,13.49,0,0,1,18.1-6.3,14.06,14.06,0,0,1,6.1,6.2L139,61.08l50.3,7.3A13.45,13.45,0,0,1,200.73,83.68Z"/>
    </g>
</svg>