<svg xmlns="http://www.w3.org/2000/svg" viewBox="0 0 181.14 389.91"><defs><style>.cls-1{fill:#fff;fill-rule:evenodd;}</style></defs><g id="Capa_2" data-name="Capa 2"><g id="Capa_1-2" data-name="Capa 1"><path class="cls-1" d="M39.91,196.49V385a4.91,4.91,0,0,0,4.91,4.91h70a4.91,4.91,0,0,0,4.91-4.91V193.42h50.76a4.91,4.91,0,0,0,4.89-4.5l4.88-57.72a4.91,4.91,0,0,0-4.9-5.32H119.73v-41a17.38,17.38,0,0,1,17.38-17.37h39.12a4.91,4.91,0,0,0,4.91-4.92V4.91A4.91,4.91,0,0,0,176.23,0h-66.1A70.22,70.22,0,0,0,39.91,70.22v55.66h-35A4.91,4.91,0,0,0,0,130.79v57.72a4.91,4.91,0,0,0,4.91,4.91h35Z"/></g></g></svg>