<svg xmlns="http://www.w3.org/2000/svg" viewBox="0 0 10.47 22.53"><defs><style>.cls-1{fill:#fff;fill-rule:evenodd;}</style></defs><g id="Capa_2" data-name="Capa 2"><g id="Capa_1-2" data-name="Capa 1"><path class="cls-1" d="M2.31,11.35v10.9a.28.28,0,0,0,.28.28h4a.29.29,0,0,0,.29-.28V11.18H9.85a.28.28,0,0,0,.28-.26l.29-3.34a.29.29,0,0,0-.29-.31H6.92V4.91a1,1,0,0,1,1-1h2.26a.28.28,0,0,0,.29-.28V.28A.29.29,0,0,0,10.18,0H6.36A4.05,4.05,0,0,0,2.31,4.06V7.27h-2A.29.29,0,0,0,0,7.56v3.33a.29.29,0,0,0,.28.29h2Z"/></g></g></svg>