<svg xmlns="http://www.w3.org/2000/svg" viewBox="0 0 398.02 326.4"><defs><style>.cls-1{fill:#fff;}</style></defs><g id="Capa_2" data-name="Capa 2"><g id="Capa_1-2" data-name="Capa 1"><path class="cls-1" d="M395.66,39.12c-12.59,5.7-26.88,9.16-40.47,11.44,6.45-1.09,15.74-12.76,19.54-17.48A73.19,73.19,0,0,0,388,8.8c.35-.69.55-1.56-.14-2.08a2.34,2.34,0,0,0-2.15.17,204.34,204.34,0,0,1-47.55,18.2,3.18,3.18,0,0,1-3.29-.87A39.06,39.06,0,0,0,330.66,20a84.16,84.16,0,0,0-23-14.11A80.24,80.24,0,0,0,272.3.17a84.46,84.46,0,0,0-33.52,9.47,86.56,86.56,0,0,0-27,22.08A83,83,0,0,0,195.6,64.06c-2.78,11.38-2.56,22.64-.86,34.14.26,1.91.09,2.17-1.63,1.91C127.8,90.39,73.66,67,29.72,17c-1.91-2.18-2.94-2.18-4.51.16C6,45.94,15.31,92.25,39.33,115c3.21,3,6.5,6.06,10,8.83-1.29.27-17.28-1.46-31.52-8.83-1.91-1.21-2.87-.52-3,1.65a50.13,50.13,0,0,0,.52,9.35C19,155.23,39.26,182.26,67,192.8A48.46,48.46,0,0,0,77.44,196c-6.31,1.39-12.81,2.38-30.92,1-2.25-.43-3.12.7-2.25,2.86,13.6,37.08,43,48.12,65,54.41,2.94.51,5.89.51,8.84,1.2-.18.27-.35.27-.52.52-7.3,11.13-32.59,19.41-44.37,23.52C51.76,287,28.44,290.33,5.8,288.09c-3.62-.53-4.38-.49-5.37,0s-.12,1.48,1,2.42c4.6,3,9.27,5.73,14,8.33a222.38,222.38,0,0,0,45,18c81,22.36,172.14,5.93,232.92-54.46C341.2,215,357.93,149.57,357.93,84.08c0-2.56,3-4,4.83-5.33a160.87,160.87,0,0,0,32.43-33c2.08-2.8,2.83-5.29,2.83-6.31v-.35C398,38.08,397.27,38.39,395.66,39.12Z"/></g></g></svg>