<svg xmlns="http://www.w3.org/2000/svg" viewBox="0 0 23 18.86"><defs><style>.cls-1{fill:#fff;}</style></defs><g id="Capa_2" data-name="Capa 2"><g id="Capa_1-2" data-name="Capa 1"><path class="cls-1" d="M22.86,2.26a9.36,9.36,0,0,1-2.34.66c.38-.06.91-.74,1.13-1a4.17,4.17,0,0,0,.77-1.4s0-.09,0-.12a.15.15,0,0,0-.13,0,11.67,11.67,0,0,1-2.74,1,.18.18,0,0,1-.19-.05,2.89,2.89,0,0,0-.24-.25A5,5,0,0,0,17.78.34,4.64,4.64,0,0,0,15.73,0,4.71,4.71,0,0,0,13.8.56a4.93,4.93,0,0,0-1.56,1.27A4.79,4.79,0,0,0,11.3,3.7a5,5,0,0,0-.05,2c0,.11,0,.13-.09.11A14.66,14.66,0,0,1,1.72,1C1.61.85,1.55.85,1.46,1a4.79,4.79,0,0,0,.81,5.66c.19.17.38.35.58.51A5.05,5.05,0,0,1,1,6.65c-.11-.07-.16,0-.17.09a2.48,2.48,0,0,0,0,.54,4.83,4.83,0,0,0,3,3.86,3.22,3.22,0,0,0,.6.19,5.47,5.47,0,0,1-1.78.05c-.13,0-.18,0-.13.17a5,5,0,0,0,3.75,3.14c.17,0,.34,0,.51.07l0,0c-.42.64-1.88,1.12-2.56,1.36a9.21,9.21,0,0,1-3.89.5c-.21,0-.26,0-.31,0s0,.08.06.14q.39.26.81.48a12.72,12.72,0,0,0,2.6,1A13.87,13.87,0,0,0,17,15.16c2.76-2.74,3.72-6.52,3.72-10.3,0-.15.18-.23.28-.31a9.4,9.4,0,0,0,1.88-1.9A.77.77,0,0,0,23,2.28v0C23,2.2,23,2.22,22.86,2.26Z"/></g></g></svg>