<svg version="1.1" id="Capa_1" xmlns="http://www.w3.org/2000/svg" viewBox="0 0 200 200">
    <defs>
        <style>.cls-1{fill:#FFFFFF;}</style>
    </defs>
    <g id="ice_cream_bag">
        <path class="cls-1"
              d="M172.2,44.6H22.6c-5.1,37-10.3,73.9-15.4,110.8c0,23.8,18,43.4,40,43.4h105.7c10.8-0.1,21-4.7,28.2-12.7c9.1-9.9,11.7-30.6,11.7-30.6L172.2,44.6z M166.6,174.6c-5.9,6.6-14.3,10.4-23.2,10.5H56.6c-18.1,0-32.9-16-32.9-35.6c4.2-30.3,8.4-60.7,12.6-91h123l16.9,91C176.2,149.5,174.1,166.5,166.6,174.6z"/>
        <path class="cls-1"
              d="M58.7,73.5c2.6-32.9,20.1-58.4,41.3-58.4s38.7,25.5,41.3,58.4h10.5C149,32.9,126.9,1.2,100,1.2S51,32.9,48.2,73.5L58.7,73.5z"/>
    </g>
</svg>
