<svg xmlns="http://www.w3.org/2000/svg" viewBox="0 0 214 185">
    <defs>
        <style>.cls-1{fill:#FFFFFF;}</style>
    </defs>
    <g id="ice_cream_bowl">
        <path class="cls-1"
              d="M127,130.71H76.42c-5.9,0-10.7,3.23-10.7,7.19s4.8,7.19,10.7,7.19H127c5.9,0,10.7-3.22,10.7-7.19S132.92,130.71,127,130.71Z"/>
        <path class="cls-1"
              d="M210.7,6.93a12.35,12.35,0,0,0-1.41-1.66l-.13-.13a18.31,18.31,0,0,0-24.8-.59L145,41.2C135.4,19.58,112.76,4.64,87,4.64c-34.23,0-62.17,26-63,58.17A52.1,52.1,0,0,0,9.41,93.53a10.8,10.8,0,0,0-7.18,4,10.35,10.35,0,0,0-2.14,7.77,10.7,10.7,0,0,0,10.63,9.5H14v19.6a19.51,19.51,0,0,0,.21,3.2A24.22,24.22,0,0,0,20,150v.17a25.55,25.55,0,0,0,.17,3.38c1.92,18.16,18.59,31.82,38.83,31.82h85.2c20.37,0,37-13.68,38.84-31.86a26.46,26.46,0,0,0,.16-3.34v-.27A24.22,24.22,0,0,0,189,137.54a19.51,19.51,0,0,0,.21-3.2v-19.5h3.6a10.7,10.7,0,1,0,0-21.4h-1.17a52.46,52.46,0,0,0-18-32l34.89-31a17.13,17.13,0,0,0,2.2-23.51ZM179.22,134.34c0,.35,0,.68,0,.68,0,.28,0,.63-.09,1-.5,3.6-2.6,6.9-5.9,9.7v4.4a16.2,16.2,0,0,1-.1,2.2c-1.2,12.9-13.7,23-28.9,23H59c-15.2,0-27.6-10.1-28.9-23a16.2,16.2,0,0,1-.1-2.2v-4.3c-3.3-2.8-5.4-6.1-5.9-9.7a9,9,0,0,1-.09-1c0-.35,0-.61,0-.67,0-.63.06-8.47.12-19.6H178.36C178.85,125.72,179.21,133.7,179.22,134.34Zm2.31-40.9h-162A42.29,42.29,0,0,1,34.12,67c0-.9-.1-1.9-.1-2.8,0-27.4,23.8-49.6,53-49.6,27,0,49.1,18.9,52.5,43.2C160.77,59.27,178,74.14,181.53,93.44ZM201.9,22.93,165.23,55.46a57.16,57.16,0,0,0-16.06-6.28L191,12a8.3,8.3,0,0,1,11.2.3,1.76,1.76,0,0,1,.4.5A7.14,7.14,0,0,1,201.9,22.93Z"/>
    </g>
</svg>