<svg xmlns="http://www.w3.org/2000/svg" viewBox="0 0 202.67 334.61">
    <defs>
        <style>.cls-1{fill:#FFFFFF;}</style>
    </defs>
    <g id="ice_cream_cone">
        <path class="cls-1"
              d="M196.55,116.65a102.84,102.84,0,0,0,1.32-14.71v-.14C197.87,45.67,155.2,0,102.77,0S7.67,45.67,7.67,101.8V102c.07,2.61.22,5.15.46,7.7a28.17,28.17,0,0,0-6.88,28c3.26,10.26,12.3,16.62,23.58,16.62.37,0,.74,0,1.1,0a45.19,45.19,0,0,0,13-2.83c3.24-1.07,6-2,8.62-2a9.34,9.34,0,0,1,2.18.24c3.52.79,7.07,3.33,10.82,6,1.36,1,2.76,2,4.27,3l.15.1c4.31,2.8,10.22,6.64,17.18,6.64.61,0,1.22,0,1.82-.09l.17,0c6.67-.81,11.51-4.17,15.78-7.14,1.42-1,2.77-1.92,4.13-2.71a32.13,32.13,0,0,1,16.35-4.42l1.28,0c3.35.13,7.38,1.72,11.63,3.41,5.32,2.1,11.33,4.48,17.7,4.48a24.59,24.59,0,0,0,4.62-.43,42.58,42.58,0,0,0,11.61-4.61c3.22-1.69,6-3.15,8.66-3.25l2.16-.06c4-.1,9-.22,13.49-1.85a16.12,16.12,0,0,0,11.12-15.05v-.19C202.79,126.67,199.48,120.84,196.55,116.65Z"/>
        <path class="cls-1"
              d="M196.6,116.65a104.3,104.3,0,0,0,1.31-14.71v-.14C197.91,45.67,155.25,0,102.81,0S7.71,45.67,7.71,101.8V102c.06,2.61.22,5.15.46,7.7a28.15,28.15,0,0,0-6.88,28c3,9.27,10.61,15.36,20.38,16.45l10,22.64,3.07,6.84L53.6,226.35l2.8,6.29,17.29,39.09,7.1,16.09,20.6,46.79L135.73,257l7.2-16.29,11.9-26.9,5.1-11.51,15.68-35.56,2.63-5.85,4.59-10.45a32.61,32.61,0,0,0,8.62-1.66c6.85-2.48,10.92-8,11.16-15.12C202.86,126.75,199.54,120.87,196.6,116.65Zm-19.09,26-6.6,15-2.6,5.8-15.7,35.6-5.1,11.5-11.9,26.9-7.2,16.3-15.8,35.7-11.2,25.3-13.3-30.2L81,268.5l-17.3-39.1-2.8-6.3-18.8-42.7L39,173.5l-12.1-27.3c-.4,0-.8.1-1.2.1-19.8.7-23.1-23.4-9.1-33.3a103.54,103.54,0,0,1-.9-11.2c0-51.8,39-93.8,87.1-93.8s87.1,42,87.1,93.8a93.89,93.89,0,0,1-1.8,16.8c3.3,4.4,6.7,9.3,6.5,14.8C194.31,142.3,184.71,142.5,177.51,142.7Z"/>
        <path class="cls-1" d="M166.11,185.69,64.25,246.25q-2.32-4.73-4.64-9.44l105.82-62.34Z"/>
    </g>
</svg>