<svg xmlns="http://www.w3.org/2000/svg" viewBox="0 0 140.8 347.1">
    <defs>
        <style>.cls-1{fill:#FFFFFF;}</style>
    </defs>
    <g id="ice_cream_palette">
        <path class="cls-1"
              d="M46.7,248.2v74c0,13.74,10.63,24.92,23.7,24.92s23.7-11.18,23.7-24.92v-74Zm39.4,74c0,9.37-7,16.92-15.7,16.92s-15.7-7.55-15.7-16.92v-66H86.1Z"/>
        <path class="cls-1"
              d="M132.8,65.7c0-15.9-7-30.3-18.3-40.8A64.87,64.87,0,0,0,70.4,8C35.9,8,8,33.8,8,65.6v8H8v1h.1a3.92,3.92,0,0,0,.2,1.3c8.8-2.6,12.5-.8,14.1,1.2,5.7,6.8-5.1,22.9,2.1,33.9.6.9,3.6,5.3,7.9,5.3,4.5.1,7.8-4.7,8.4-5.6,7.5-10.9-1-25.9,5.2-31.8,2.4-2.3,7.1-3.3,10-1.2,10.5,8.1-8.7,58.1,1,72.5,3.4,5,7.5,6,7.5,6a10.84,10.84,0,0,0,8.2-1.8c12.2-8.5-10.2-63.4,4.7-76.1,2.5-2.1,6.6-3.5,8.9-1.8,7.1,5.2-7.2,35.3,2.6,45.2a12.9,12.9,0,0,0,8.9,3.6,12.21,12.21,0,0,0,8.4-4.2c7.5-8.8-5.3-27.1.5-37.5,2.3-4.1,8.4-8.4,26.1-6.3V74.6h0Z"/>
        <path class="cls-1"
              d="M120,19.82A70.93,70.93,0,0,0,70.78,0H70.4C31.58,0,0,30.69,0,68.4V256.2H140.8V68.4A67.58,67.58,0,0,0,120,19.82ZM132.8,248.2H8V68.4C8,35,36,8,70.4,8a63.26,63.26,0,0,1,44.1,17.6,59.32,59.32,0,0,1,18.3,42.8Z"/>
    </g>
</svg>