<svg version="1.1" id="Capa_1" xmlns="http://www.w3.org/2000/svg" viewBox="0 0 200 200">
    <defs>
        <style>.cls-1{fill:#FFFFFF;}</style>
    </defs>
    <g id="ice_cream_search">
        <path class="cls-1"
              d="M193.6,182.8l-57.2-57.2c25.9-31.9,21.1-78.7-10.7-104.7S46.9-0.2,20.9,31.7s-21.1,78.7,10.7,104.7c27.4,22.3,66.6,22.3,93.9,0l57.2,57.2c3,3,7.8,3,10.7,0C196.5,190.6,196.5,185.8,193.6,182.8z M36.7,120.5c-23.1-23.1-23.1-60.6,0.1-83.8s60.6-23.1,83.8,0.1s23.1,60.6-0.1,83.8c-11.1,11.1-26.2,17.3-41.9,17.3C62.9,137.8,47.9,131.6,36.7,120.5z"/>
    </g>
</svg>