<svg id="Capa_1" data-name="Capa 1" xmlns="http://www.w3.org/2000/svg" viewBox="0 0 32 32"><path d="M27.36,8.83A9.36,9.36,0,0,1,25,9.49c.38-.06.91-.74,1.13-1a4.17,4.17,0,0,0,.77-1.4s0-.09,0-.12a.13.13,0,0,0-.12,0A11.91,11.91,0,0,1,24,8a.18.18,0,0,1-.19,0,2.89,2.89,0,0,0-.24-.25,5,5,0,0,0-1.33-.81,4.64,4.64,0,0,0-2.05-.33,4.71,4.71,0,0,0-1.93.55A4.93,4.93,0,0,0,16.74,8.4a4.79,4.79,0,0,0-.94,1.87,5.23,5.23,0,0,0-.05,2c0,.11,0,.13-.09.11a14.68,14.68,0,0,1-9.44-4.8c-.11-.13-.17-.13-.26,0a4.81,4.81,0,0,0,.81,5.66c.19.17.38.35.58.51a5.1,5.1,0,0,1-1.82-.51c-.11-.07-.16,0-.17.09a2.48,2.48,0,0,0,0,.54,4.83,4.83,0,0,0,3,3.86A3.09,3.09,0,0,0,9,17.9,5.56,5.56,0,0,1,7.19,18c-.13,0-.18,0-.13.17a5,5,0,0,0,3.75,3.14c.17,0,.34,0,.51.07l0,0c-.42.64-1.88,1.12-2.56,1.36a9.21,9.21,0,0,1-3.89.5c-.21,0-.26,0-.31,0s0,.08.06.14q.39.26.81.48a12.72,12.72,0,0,0,2.6,1,13.87,13.87,0,0,0,13.46-3.15c2.76-2.74,3.72-6.52,3.72-10.3,0-.15.18-.23.28-.31a9.4,9.4,0,0,0,1.88-1.9.77.77,0,0,0,.16-.37v0C27.5,8.77,27.46,8.79,27.36,8.83Z" fill="#fff"/></svg>